<?xml version="1.0" standalone="no"?><!DOCTYPE svg PUBLIC "-//W3C//DTD SVG 1.1//EN" "http://www.w3.org/Graphics/SVG/1.1/DTD/svg11.dtd"><svg class="icon" width="16px" height="16.00px" viewBox="0 0 1024 1024" version="1.1" xmlns="http://www.w3.org/2000/svg"><path fill="#333333" d="M664.505671 842.532708c-8.723503 0-17.260659-3.226263-24.018302-9.393124l-49.821236-45.460508c-25.549011 5.883245-51.802454 8.860704-78.212552 8.860704-83.740509 0-162.575584-29.231926-221.983458-82.309118-29.110084-26.008735-51.991873-56.350553-68.008511-90.182795-16.670901-35.214488-25.123074-72.636473-25.123074-111.227735 0-48.843426 14.004703-97.009039 40.500808-139.290383 6.005087-9.583567 18.642904-12.48321 28.225447-6.478123 9.583567 6.005087 12.48321 18.642904 6.478122 28.225447-22.406706 35.755099-34.249988 76.400275-34.249988 117.542035 0 133.86072 122.988081 242.764234 274.15963 242.764235 26.833987 0 53.474459-3.479162 79.1791-10.341242a20.475659 20.475659 0 0 1 21.926504 7.857296c0.017406 0.023549 0.033788 0.048123 0.052219 0.071672l46.503847 42.432879 4.419089-70.724878a20.476683 20.476683 0 0 1 9.318381-15.919369C744.459852 663.30363 786.613211 589.979106 786.613211 512.818084c0-133.86072-122.988081-242.764234-274.160654-242.764234-54.80039 0-107.692258 14.279105-152.957204 41.293295-9.710528 5.796215-22.282816 2.62217-28.078008-7.089382-5.796215-9.711552-2.62217-22.282816 7.089382-28.078007 51.60894-30.800518 111.758107-47.080295 173.94583-47.080295 83.740509 0 162.575584 29.230902 221.984482 82.309117 29.110084 26.008735 51.990849 56.350553 68.008511 90.182796 16.669877 35.214488 25.123074 72.636473 25.123074 111.227734 0 45.958117-12.492425 91.603948-36.127793 132.001344-21.024461 35.937351-50.854336 67.811925-86.662678 92.705649l-4.462092 71.413954c-0.867231 13.873646-9.41053 25.72819-22.295103 30.939766a35.97933 35.97933 0 0 1-13.515287 2.652887z"  /><path fill="#333333" d="M362.765642 512.807846m-40.491593 0a40.491593 40.491593 0 1 0 80.983186 0 40.491593 40.491593 0 1 0-80.983186 0Z"  /><path fill="#333333" d="M510.731406 512.807846m-40.491593 0a40.491593 40.491593 0 1 0 80.983186 0 40.491593 40.491593 0 1 0-80.983186 0Z"  /><path fill="#333333" d="M653.527573 512.807846m-40.491593 0a40.491593 40.491593 0 1 0 80.983186 0 40.491593 40.491593 0 1 0-80.983186 0Z"  /></svg>