<?xml version="1.0" standalone="no"?><!DOCTYPE svg PUBLIC "-//W3C//DTD SVG 1.1//EN" "http://www.w3.org/Graphics/SVG/1.1/DTD/svg11.dtd"><svg class="icon" width="16px" height="16.00px" viewBox="0 0 1024 1024" version="1.1" xmlns="http://www.w3.org/2000/svg"><path fill="#333333" d="M477.906725 331.748069 925.806519 229.07786 925.806519 112.227905 478.090517 215.542557 477.906725 331.748069 477.906725 331.748069 477.906725 331.748069 477.906725 331.748069ZM925.806519 329.853564 477.747373 432.502031C477.747373 432.502031 476.931651 817.377021 476.931651 822.011373 476.931651 930.335161 367.520502 1011.380458 238.466878 1011.380458 109.413253 1011.380458 0.002104 930.335161 0.002104 822.011373 0.002104 713.687586 109.413253 632.642289 238.466878 632.642289 290.341834 632.642289 339.04305 645.737203 378.740274 668.435024L378.740274 193.742697C378.740274 162.789801 403.24721 132.042055 433.476227 125.066133L969.261943 1.42327C999.491776-5.552835 1023.997896 13.863598 1023.997896 44.911614L1023.997896 681.737977C1023.997896 790.061765 914.586747 871.107062 785.533122 871.107062 656.479498 871.107062 547.068349 790.061765 547.068349 681.737977 547.068349 573.41419 656.479498 492.368893 785.533122 492.368893 837.408079 492.368893 886.109295 505.463807 925.806519 528.161627L925.806519 329.853564ZM231.453208 915.994507C308.924065 915.994507 371.726604 875.172858 371.726604 824.816799 371.726604 774.46074 308.924065 733.639092 231.453208 733.639092 153.98235 733.639092 91.179812 774.46074 91.179812 824.816799 91.179812 875.172858 153.98235 915.994507 231.453208 915.994507L231.453208 915.994507ZM792.546792 772.915685C870.01765 772.915685 932.820188 732.094036 932.820188 681.737977 932.820188 631.381918 870.01765 590.56027 792.546792 590.56027 715.075935 590.56027 652.273396 631.381918 652.273396 681.737977 652.273396 732.094036 715.075935 772.915685 792.546792 772.915685L792.546792 772.915685Z" /></svg>