<?xml version="1.0" standalone="no"?><!DOCTYPE svg PUBLIC "-//W3C//DTD SVG 1.1//EN" "http://www.w3.org/Graphics/SVG/1.1/DTD/svg11.dtd"><svg class="icon" width="16px" height="16.00px" viewBox="0 0 1024 1024" version="1.1" xmlns="http://www.w3.org/2000/svg"><path fill="#333333" d="M721.9 67.3c-80.7 0-146.3 65.6-146.3 146.3v595.5c0 80.7 65.6 146.3 146.3 146.3s146.3-65.6 146.3-146.3V213.6c0-80.6-65.6-146.3-146.3-146.3z m46.3 741.9c0 25.5-20.8 46.3-46.3 46.3-25.5 0-46.3-20.8-46.3-46.3V213.6c0-25.5 20.8-46.3 46.3-46.3 25.5 0 46.3 20.8 46.3 46.3v595.6zM301.2 67.5c-80.7 0-146.3 65.6-146.3 146.3v595.5c0 80.7 65.6 146.3 146.3 146.3S447.5 890 447.5 809.3V213.8c0-80.7-65.6-146.3-146.3-146.3z m46.3 741.8c0 25.5-20.8 46.3-46.3 46.3s-46.3-20.8-46.3-46.3V213.8c0-25.5 20.8-46.3 46.3-46.3s46.3 20.8 46.3 46.3v595.5z"  /></svg>